# xmcd
#
# Track frame offsets: 
#        150
#        5960
#        33955
#        48555
#        68160
#        90320
#        112010
#        130163
#        148425
#        167853
#
# Disc length: 2534 seconds
#
# Revision: 10
# Processed by: cddbd v1.5.2PL0 Copyright (c) Steve Scherf et al.
# Submitted via: ExactAudioCopy v0.99pb3
#
DISCID=9009e40a
DTITLE=Electric Light Orchestra  / Electric Light Orchestra Part Two
DYEAR=1990
DGENRE=Rock
TTITLE0=Hello
TTITLE1=Honest Men
TTITLE2=Every Night
TTITLE3=Once Upon a Time
TTITLE4=Heartbreaker
TTITLE5=1000 Eyes
TTITLE6=For the Love of a Woman
TTITLE7=Kiss Me Red
TTITLE8=Heart of Hearts
TTITLE9=Easy Street
EXTD=more info\nMillenniumMusicProjectFormat, syntax as follows:\nTitl
EXTD=e{Subtitle}[info](Lyricist;Composer;Date,Artist,Location)[info]\n
EXTD=corrections to: windking3@yahoo.com YEAR: 1990
EXTT0=
EXTT1=
EXTT2=
EXTT3=
EXTT4=
EXTT5=
EXTT6=
EXTT7=
EXTT8=
EXTT9=
PLAYORDER=
.
